<?xml version="1.0" encoding="iso-8859-1"?>
<!-- Generator: Adobe Illustrator 19.0.0, SVG Export Plug-In . SVG Version: 6.00 Build 0)  -->
<svg version="1.1" id="Capa_1" xmlns="http://www.w3.org/2000/svg" xmlns:xlink="http://www.w3.org/1999/xlink" x="0px" y="0px"
	 viewBox="0 0 59 59" style="enable-background:new 0 0 59 59;" xml:space="preserve">
<path style="fill:#38454F;" d="M38.24,45.22c-0.224-0.459-0.752-0.676-1.234-0.507c-4.403,1.559-9.253,1.705-13.782,0.394
	c-0.47-0.135-0.96,0.083-1.174,0.516c-0.216,0.434-0.089,0.958,0.299,1.247C25.155,48.954,28.5,52.577,28.5,58c0,0.552,0.447,1,1,1
	s1-0.448,1-1c0-5.67,4.009-9.383,7.372-11.498C38.304,46.23,38.462,45.678,38.24,45.22z"/>
<circle style="fill:#BDC3C7;" cx="29.5" cy="23.5" r="23.5"/>
<path style="fill:#FFFFFF;" d="M38.5,15.686c-2.584,0-4.687-2.102-4.687-4.686c0-0.552,0.447-1,1-1s1,0.448,1,1
	c0,1.481,1.205,2.686,2.687,2.686c0.553,0,1,0.448,1,1S39.053,15.686,38.5,15.686z"/>
<path style="fill:#FFFFFF;" d="M41.05,24c-0.013,0-0.025,0-0.038,0c-1.252-0.047-2.41-0.578-3.261-1.495
	c-0.852-0.917-1.294-2.111-1.247-3.363c0.02-0.552,0.472-0.979,1.036-0.962c0.552,0.021,0.982,0.485,0.962,1.037
	c-0.026,0.718,0.228,1.402,0.715,1.928s1.151,0.83,1.869,0.856c0.552,0.021,0.982,0.485,0.962,1.037
	C42.028,23.577,41.585,24,41.05,24z"/>
<path style="fill:#FFFFFF;" d="M50.099,27.821c-0.013,0-0.025,0-0.038,0c-1.252-0.047-2.41-0.578-3.261-1.495
	c-0.852-0.917-1.294-2.111-1.247-3.363c0.02-0.552,0.483-0.987,1.036-0.962c0.552,0.021,0.982,0.485,0.962,1.037
	c-0.026,0.718,0.228,1.402,0.715,1.928s1.151,0.83,1.869,0.856c0.552,0.021,0.982,0.485,0.962,1.037
	C51.077,27.398,50.634,27.821,50.099,27.821z"/>
<path style="fill:#FFFFFF;" d="M47.05,18c-0.013,0-0.025,0-0.038,0c-1.252-0.047-2.41-0.578-3.261-1.495
	c-0.852-0.917-1.294-2.111-1.247-3.363c0.021-0.552,0.498-0.985,1.036-0.962c0.552,0.021,0.982,0.485,0.962,1.037
	c-0.026,0.718,0.228,1.402,0.715,1.928s1.151,0.83,1.869,0.856c0.552,0.021,0.982,0.485,0.962,1.037
	C48.028,17.577,47.585,18,47.05,18z"/>
<path style="fill:#FFFFFF;" d="M41.5,9.294c-2.584,0-4.687-2.102-4.687-4.686c0-0.552,0.447-1,1-1s1,0.448,1,1
	c0,1.481,1.205,2.686,2.687,2.686c0.553,0,1,0.448,1,1S42.053,9.294,41.5,9.294z"/>
<g>
</g>
<g>
</g>
<g>
</g>
<g>
</g>
<g>
</g>
<g>
</g>
<g>
</g>
<g>
</g>
<g>
</g>
<g>
</g>
<g>
</g>
<g>
</g>
<g>
</g>
<g>
</g>
<g>
</g>
</svg>
